<svg width="24" height="24" xmlns="http://www.w3.org/2000/svg"><!--! Font Awesome Pro 6.2.0 by @fontawesome - https://fontawesome.com License - https://fontawesome.com/license (Commercial License) Copyright 2022 Fonticons, Inc.--><path fill="#909090" d="M11.202 2.712a2.367 2.367 0 011.6 0l7.125 2.545A2.376 2.376 0 0121.5 7.495v9.01c0 1.002-.63 1.9-1.577 2.238l-7.125 2.545a2.367 2.367 0 01-1.6 0l-7.125-2.545A2.376 2.376 0 012.5 16.505v-9.01c0-1.002.63-1.9 1.577-2.238zM12 4.949L5.554 7.25 12 9.55l6.446-2.3zm1.188 13.679l5.937-2.12V9.533l-5.938 2.12z"/></svg>