<svg width="24" height="24" xmlns="http://www.w3.org/2000/svg"><!--! Font Awesome Pro 6.2.0 by @fontawesome - https://fontawesome.com License - https://fontawesome.com/license (Commercial License) Copyright 2022 Fonticons, Inc.--><path fill="#909090" d="M6.412 10.598l-2.998 5.138V6.278c0-1.193.97-2.163 2.163-2.163h3.972c.574 0 1.125.227 1.53.632l.896.896c.406.406.957.632 1.532.632h3.968c1.193 0 2.163.97 2.163 2.163V9.52H8.281c-.77 0-1.48.409-1.87 1.075zm.933.544c.196-.334.55-.537.936-.537h13.52a1.082 1.082 0 01.933 1.63l-3.785 6.489a1.077 1.077 0 01-.933.534H4.496a1.082 1.082 0 01-.933-1.63l3.785-6.489z"/></svg>