<svg width="24" height="24" xmlns="http://www.w3.org/2000/svg">
   <!--! Font Awesome Pro 6.2.0 by @fontawesome - https://fontawesome.com License - https://fontawesome.com/license (Commercial License) Copyright 2022 Fonticons, Inc.-->
   <path fill="#cac556"
      d="M5.348 19.761h13.304a2.22 2.22 0 002.218-2.217v-8.87a2.22 2.22 0 00-2.218-2.218h-5.18a2.218 2.218 0 01-1.569-.647l-.918-.922a2.218 2.218 0 00-1.57-.648H5.348A2.22 2.22 0 003.13 6.456v11.088a2.22 2.22 0 002.218 2.217z"
      fill-opacity=".79" />
   <path fill="#f4ec79"
      d="M5.792 18.757h12.416a2.072 1.933 0 002.07-1.93V9.104a2.072 1.933 0 00-2.07-1.93h-4.834a2.07 1.931 0 01-1.465-.564l-.856-.803a2.07 1.931 0 00-1.465-.564H5.792a2.072 1.933 0 00-2.07 1.93v9.654a2.072 1.933 0 002.07 1.93z"
      fill-opacity=".403" />
   <path fill="#fff"
      d="M6.165 17.18h11.219a1.872 1.598 0 001.87-1.596V9.201a1.872 1.598 0 00-1.87-1.596h-4.368a1.87 1.596 0 01-1.323-.466l-.774-.663a1.87 1.596 0 00-1.324-.467h-3.43a1.872 1.598 0 00-1.87 1.596v7.979a1.872 1.598 0 001.87 1.595z"
      fill-opacity=".333" />
</svg>