<svg width="24" height="24" xmlns="http://www.w3.org/2000/svg">
   <!--! Font Awesome Pro 6.2.0 by @fontawesome - https://fontawesome.com License - https://fontawesome.com/license (Commercial License) Copyright 2022 Fonticons, Inc.-->
   <path fill="#909090"
      d="M7.8 5.7A6.302 6.302 0 001.5 12c0 3.478 2.822 6.3 6.3 6.3h8.4c3.478 0 6.3-2.822 6.3-6.3 0-3.478-2.822-6.3-6.3-6.3zm9.975 6.037a1.312 1.312 0 110-2.624 1.312 1.312 0 010 2.625zm-.787 1.838a1.312 1.312 0 11-2.625 0 1.312 1.312 0 012.624 0zm-9.976-3.412c0-.437.352-.788.788-.788.436 0 .787.351.787.787v1.05h1.05c.437 0 .788.352.788.788a.786.786 0 01-.787.787h-1.05v1.05a.786.786 0 01-.788.788.786.786 0 01-.787-.787v-1.05h-1.05A.786.786 0 015.175 12c0-.436.351-.787.787-.787h1.05z" />
</svg>