<svg xmlns="http://www.w3.org/2000/svg" width="24" height="24"><path fill="#909090" d="M6.272 17.728a3.103 3.103 0 010-4.384l2.829-2.829-1.344-1.343L4.93 12a5.002 5.002 0 000 7.071 5.002 5.002 0 007.071 0l2.828-2.828-1.343-1.344-2.829 2.829a3.103 3.103 0 01-4.384 0zm3.607-2.192l5.657-5.657-1.415-1.415-5.657 5.657zM12 4.929L9.172 7.757l1.343 1.344 2.829-2.829a3.103 3.103 0 014.384 0 3.103 3.103 0 010 4.384l-2.829 2.829 1.344 1.343L19.07 12a5.002 5.002 0 000-7.071 5.002 5.002 0 00-7.071 0z"/></svg>