<svg width="24" height="24" xmlns="http://www.w3.org/2000/svg"><!--! Font Awesome Pro 6.2.0 by @fontawesome - https://fontawesome.com License - https://fontawesome.com/license (Commercial License) Copyright 2022 Fonticons, Inc.--><path fill="#909090" d="M6.286 4A2.288 2.288 0 004 6.286v11.428A2.288 2.288 0 006.286 20h11.428A2.288 2.288 0 0020 17.714V9.046c0-.607-.24-1.189-.668-1.617l-2.76-2.761A2.286 2.286 0 0014.953 4zm0 3.429c0-.633.51-1.143 1.143-1.143h6.857c.632 0 1.143.51 1.143 1.143v2.285c0 .632-.511 1.143-1.143 1.143H7.429a1.14 1.14 0 01-1.143-1.143zM12 17.714a2.288 2.288 0 01-2.286-2.285A2.288 2.288 0 0112 13.143a2.288 2.288 0 012.286 2.286A2.288 2.288 0 0112 17.714z"/></svg>